<?xml version="1.0" encoding="utf-8"?>
<!-- Generator: Adobe Illustrator 19.2.1, SVG Export Plug-In . SVG Version: 6.00 Build 0)  -->
<svg version="1.1" id="layer" xmlns="http://www.w3.org/2000/svg" xmlns:xlink="http://www.w3.org/1999/xlink" x="0px" y="0px"
	 viewBox="0 0 652 652" style="enable-background:new 0 0 652 652;" xml:space="preserve">
<style type="text/css">
	.st0{fill:#020202;}
</style>
<path class="st0" d="M71.9,304.9c1.4-5.2,3.5-10.1,6.1-14.6c2.6-4.5,5.6-8.5,8.9-11.8c3.3-3.3,7-6.1,10.8-8c3.8-1.9,7.8-3,11.7-3
	c2.3,0,4.3,0.3,5.9,1c1.6,0.7,3,1.6,4,2.6s1.9,2.1,2.4,3.3c0.5,1.2,0.7,2.4,0.7,3.5c0,1.6-0.3,3.1-1.2,4.5c-0.9,1.6-2.4,2.3-4.9,2.3
	c-1.9,0-3.5-0.3-4.2-1.2c-0.9-0.7-1.2-1.6-1.2-2.6c0-0.9,0.2-1.7,0.5-2.4c0.3-0.7,0.7-1.4,1.2-1.9c0.3-0.5,0.7-1.2,1-1.7
	c0.3-0.5,0.5-1.2,0.5-1.9c0-1.6-0.5-2.6-1.6-3.1c-1-0.5-2.3-0.7-3.7-0.7c-4,0-7.7,1.2-10.6,3.8c-3.1,2.6-5.7,5.6-7.8,9
	s-4,7.1-5.2,10.8c-1.4,3.7-2.3,6.6-3,9L79.5,312h16.7l-0.5,1.9H79l-12.4,46.1c-1.6,5.7-3.5,11.3-5.7,16.7c-2.3,5.4-5,10.3-8,14.3
	c-3,4.2-6.3,7.5-9.9,9.9c-3.5,2.4-7.3,3.7-11.3,3.7c-1.2,0-2.4-0.2-3.7-0.3c-1.4-0.3-2.4-0.7-3.7-1.4c-1-0.7-1.9-1.6-2.8-2.8
	c-0.7-1-1-2.6-1-4.3s0.5-3.1,1.6-4.5c1-1.2,2.6-1.9,4.9-1.9c1.2,0,2.1,0.2,2.8,0.7c0.7,0.5,1,1.4,1,2.8c0,1-0.2,2.1-0.7,3.1
	c-0.5,1-0.7,2.3-0.7,3.5c0,1.2,0.3,2.1,1.2,2.6c0.7,0.5,1.7,0.9,3,0.9c3.8,0,7.5-2.6,11-7.8c3.5-5.2,6.8-13.6,9.9-25.1l15-55.8H56.6
	l0.5-1.9H70L71.9,304.9z"/>
<path class="st0" d="M122.3,312.2l-15.5,44.7c-0.7,1.9-1.2,3.7-1.6,5c-0.3,1.6-0.5,2.6-0.5,3.3c0,1.2,0.3,2.4,1,3.3
	c0.7,1,1.7,1.6,3.5,1.6c2.4,0,5-0.9,7.8-2.8c2.8-1.9,5.6-4.2,8.4-7.1s5.2-6.1,7.5-9.7c2.3-3.5,4-7.1,5.2-10.6l9.6-27.7h9.4l-16,45.9
	c-0.5,1.4-0.9,2.8-1.4,4.2c-0.5,1.4-0.7,2.8-0.7,4c0,1,0.3,2.1,0.9,2.8c0.7,0.7,1.6,1.2,2.8,1.2c1.6,0,3-0.5,4.3-1.6
	c1.4-1,2.6-2.1,3.8-3.5c1-1.4,2.1-2.6,3-4c0.9-1.4,1.4-2.4,1.7-3.3l1.6,0.7c-0.3,0.7-0.9,1.7-1.7,3.3c-0.7,1.6-1.9,3-3.1,4.5
	c-1.4,1.6-3,2.8-5,3.8c-1.9,1-4.3,1.6-7,1.6c-3,0-5.4-0.5-7.1-1.7c-1.7-1.2-2.6-3.3-2.6-6.1c0-1.6,0.2-3,0.5-4.3
	c0.3-1.4,0.9-3,1.6-4.9l-0.3-0.3c-1.2,1.6-2.8,3.5-4.5,5.4c-1.7,2.1-3.7,4-5.7,5.7c-2.1,1.7-4.2,3.3-6.4,4.5
	c-2.3,1.2-4.7,1.7-7.1,1.7c-3.8,0-7-0.9-9.2-2.8c-2.3-1.7-3.3-4.3-3.3-7.8c0-1.4,0.3-3,0.9-4.9c0.7-1.9,1.2-3.5,1.6-4.9l13.2-37.4
	h-12l0.5-1.9H122.3z"/>
<path class="st0" d="M176.8,358.1c-0.5,1.4-0.9,2.8-1.4,4.2s-0.7,2.8-0.7,4c0,1,0.3,2.1,0.9,2.8c0.7,0.7,1.6,1.2,2.8,1.2
	c1.4,0,2.8-0.5,4.2-1.6c1.4-1,2.6-2.1,3.8-3.5c1.2-1.4,2.1-2.6,3-4c0.9-1.4,1.4-2.4,1.7-3.3l1.6,0.7c-0.3,0.7-0.9,1.7-1.7,3.3
	c-0.7,1.6-1.7,3-3.1,4.5c-1.4,1.6-3,2.8-5,3.8c-1.9,1-4.3,1.6-7,1.6c-3,0-5.4-0.5-7.1-1.7s-2.6-3.3-2.6-6.1c0-1.6,0.3-3.3,0.9-5
	c0.5-1.9,1-3.5,1.6-5l30.1-84.4h-12l0.5-1.9h21.6L176.8,358.1z"/>
<path class="st0" d="M343.9,360.6c-1,1.7-2.6,3.3-4.5,5c-1.9,1.7-4.2,3.1-7,4.5c-2.8,1.4-6.1,1.9-9.9,1.9c-3.8,0-7.1-0.7-9.7-1.9
	c-2.6-1.2-4.9-3-6.4-4.9c-1.7-1.9-3-4.2-3.7-6.6c-0.7-2.4-1.2-4.7-1.2-7c0-4.5,1-9.2,3.3-13.9c2.3-4.9,5-9.2,8.7-13.2
	c3.5-4,7.7-7.3,12.2-9.9c4.5-2.6,9-4,13.7-4c1.7,0,3.7,0.2,5.4,0.5c1.7,0.3,3.5,1,4.9,1.7c1.4,0.9,2.6,1.9,3.5,3.1s1.4,2.8,1.4,4.5
	c0,2.4-0.7,4.5-1.9,6.4c-1.4,1.9-3,3.5-5,4.7c-2.1,1.4-4.3,2.4-6.8,3.3c-2.4,0.9-4.9,1.6-7.3,2.1c-2.3,0.5-4.5,0.9-6.4,1
	c-1.9,0.2-3.3,0.3-4.3,0.3c-1.6,0-3,0-4.5-0.2c-1.4-0.2-2.8-0.2-3.8-0.3c-1,3-1.9,5.7-2.4,8.5c-0.7,2.8-1,5.9-1,9
	c0,4.9,1.2,8.5,3.8,11c2.4,2.4,5.7,3.7,9.6,3.7c3,0,5.4-0.5,7.7-1.7c2.3-1,4.2-2.4,5.7-4c1.7-1.6,3.1-3.1,4.2-4.7
	c1-1.6,2.1-2.8,2.8-3.7l1.6,0.9C345.9,357.6,345,358.8,343.9,360.6z M344.5,314.3c-1-1.2-3-1.9-5.4-1.9c-2.8,0-5.4,0.9-8,2.4
	c-2.6,1.6-4.9,3.7-7,6.1c-2.1,2.4-3.8,5-5.4,7.7c-1.6,2.8-2.8,5.2-3.5,7.7c2.1,0.3,4.3,0.5,7,0.5c3.3,0,6.3-0.5,9.2-1.6
	c3-1,5.4-2.3,7.7-4c2.3-1.6,4-3.5,5.2-5.7c1.4-2.1,1.9-4.3,1.9-6.8C346,317.1,345.5,315.5,344.5,314.3z"/>
<path class="st0" d="M402.4,360.1c-0.5,2.1-0.9,4.2-0.9,5.7c0,2.3,1,3.5,3.3,3.5c1.7,0,3.5-0.5,4.9-1.6c1.4-1,2.6-2.3,3.7-3.5
	c1-1.4,1.9-2.6,2.6-4c0.7-1.4,1.2-2.3,1.4-2.8l1.7,0.9c-0.5,1-1.2,2.3-2.1,3.8c-0.9,1.6-2.1,3-3.5,4.3c-1.4,1.4-3.1,2.6-5,3.7
	c-1.9,1-4.2,1.6-6.6,1.6c-5.9,0-8.9-2.8-8.9-8.2c0-0.7,0.2-1.7,0.3-3.3c0.3-1.6,0.7-3,1-4.2H394c-1.2,1.6-2.8,3.3-4.3,5
	c-1.6,1.9-3.5,3.5-5.4,5.2c-2.1,1.6-4.2,3-6.6,4c-2.4,1-5.2,1.6-8.2,1.6c-1.9,0-3.7-0.3-5.4-1c-1.7-0.7-3.3-1.7-4.7-3.1
	c-1.4-1.4-2.4-3.1-3.1-5.4c-0.7-2.1-1.2-4.7-1.2-7.7c0-3.7,0.7-7.1,2.1-10.8c1.4-3.7,3.3-7.1,5.6-10.3c2.3-3.3,5-6.3,8-9
	s6.1-5.2,9.2-7.3c3.1-2.1,6.3-3.7,9.2-4.9s5.7-1.7,8-1.7c2.8,0,5,0.7,7,2.3c1.9,1.6,2.8,3.5,2.8,6.1h0.3l2.3-6.6h9.4l-14.8,41.1
	C403.6,355.7,402.9,357.8,402.4,360.1z M405.5,323.9c0.3-1.2,0.5-2.3,0.5-3.1s-0.2-1.7-0.3-2.6c-0.2-0.9-0.7-1.9-1.2-2.6
	c-0.5-0.9-1.4-1.6-2.4-2.1c-1-0.5-2.3-0.9-4-0.9c-3,0-5.9,0.9-8.7,2.4c-2.8,1.7-5.6,3.8-8,6.6c-2.4,2.8-4.7,5.7-6.8,9.2
	c-2.1,3.5-3.8,7-5.4,10.6c-1.6,3.5-2.6,7-3.5,10.3c-0.9,3.3-1.2,6.3-1.2,8.9c0,3,0.5,5.2,1.7,7c1,1.7,3,2.8,5.6,2.8
	c2.6,0,5.2-0.9,8-2.4s5.2-3.5,7.5-5.7s4.2-4.5,5.7-6.8s2.6-4,3.1-5.2l7.1-19.8C404.5,327.2,405.2,325.1,405.5,323.9z"/>
<path class="st0" d="M456,312.2l-15.5,44.7c-0.7,1.9-1.2,3.7-1.6,5c-0.3,1.6-0.5,2.6-0.5,3.3c0,1.2,0.3,2.4,1,3.3
	c0.7,1,1.9,1.6,3.5,1.6c2.4,0,5-0.9,7.8-2.8c2.8-1.9,5.6-4.2,8.4-7.1c2.8-3,5.2-6.1,7.5-9.7c2.3-3.5,4-7.1,5.2-10.6l9.6-27.7h9.4
	l-16,45.9c-0.5,1.4-0.9,2.8-1.4,4.2c-0.5,1.4-0.7,2.8-0.7,4c0,1,0.3,2.1,0.9,2.8c0.7,0.7,1.6,1.2,2.8,1.2c1.6,0,3-0.5,4.3-1.6
	c1.4-1,2.6-2.1,3.8-3.5c1-1.4,2.1-2.6,3-4c0.9-1.4,1.4-2.4,1.7-3.3l1.6,0.7c-0.3,0.7-0.9,1.7-1.7,3.3c-0.7,1.6-1.7,3-3.1,4.5
	s-3,2.8-5,3.8c-1.9,1-4.3,1.6-7,1.6c-3,0-5.4-0.5-7.1-1.7c-1.7-1.2-2.6-3.3-2.6-6.1c0-1.6,0.2-3,0.5-4.3c0.3-1.4,0.9-3,1.6-4.9
	l-0.3-0.3c-1.2,1.6-2.8,3.5-4.5,5.4c-1.7,2.1-3.7,4-5.7,5.7c-2.1,1.7-4.2,3.3-6.4,4.5c-2.3,1.2-4.7,1.7-7.1,1.7
	c-3.8,0-7-0.9-9.2-2.8c-2.3-1.7-3.3-4.3-3.3-7.8c0-1.4,0.3-3,0.9-4.9c0.7-1.9,1.2-3.5,1.6-4.9l13.2-37.4h-12l0.5-1.9H456z"/>
<path class="st0" d="M531.3,299l-4.9,13.2h14.8l-0.5,1.9h-14.8l-15.5,43c-0.5,1.4-0.9,2.8-1.4,4.2c-0.5,1.4-0.7,3-0.7,4.3
	c0,1.4,0.3,2.4,1,3.3c0.7,0.9,1.7,1.2,3.3,1.2c1.6,0,3.1-0.5,4.5-1.6c1.4-1,2.8-2.1,4-3.5s2.1-2.6,3-4c0.9-1.4,1.4-2.4,1.7-3.3
	l1.6,0.7c-0.3,0.7-0.9,1.7-1.7,3.3c-0.9,1.6-1.9,3-3.3,4.5c-1.4,1.6-3,2.8-5,3.8c-2.1,1-4.5,1.6-7.3,1.6c-3.5,0-5.9-0.9-7.7-2.4
	c-1.7-1.7-2.6-3.7-2.6-6.1c0-1.7,0.3-3.8,1-6.1c0.7-2.3,1.4-4.3,2.1-6.3l13.2-36.7H504l0.5-1.9h12.2l4.9-13.2H531.3z"/>
<path class="st0" d="M539.8,322.7c0.5-1.9,1.4-3.8,2.4-5.7c1-1.7,2.3-3.3,4-4.5c1.6-1.2,3.7-1.9,6.1-1.9c3,0,5.2,0.7,7.3,2.3
	c1.9,1.6,3.5,3.3,4.5,5.6c1,2.3,1.9,4.7,2.4,7.3c0.5,2.6,0.7,5,0.7,7.3c0,5.9-0.3,11.1-1,15.3c-0.7,4.3-1.4,7.8-1.9,10.8h0.3
	l20.4-37.2c0.7-1.4,1.4-2.8,2.3-4c0.7-1.4,1.6-2.6,2.6-3.7c1-1,2.1-1.9,3.5-2.6s2.8-1,4.5-1c2.1,0,3.7,0.5,4.5,1.6
	c0.9,1,1.2,2.3,1.2,3.7c0,1.7-0.5,3.1-1.6,4.2c-1,1-2.6,1.6-4.3,1.6c-1.7,0-2.6-0.9-2.6-2.4c0-1,0.2-1.7,0.7-2.3
	c0.5-0.5,0.7-1.2,0.7-1.9c0-1.4-0.7-1.9-1.9-1.7c-1,0.2-2.3,0.9-3.5,2.4c-1.2,1.6-3,4-4.9,7.5l-24.7,44.7l-7.8,14.6
	c-1.6,3-3.1,5.7-4.9,8.4c-1.7,2.8-3.5,5-5.4,7.1c-1.9,2.1-3.8,3.7-5.9,5c-2.1,1.2-4.2,1.9-6.4,1.9c-3.5,0-6.3-0.9-8.4-2.4
	c-2.1-1.7-3.1-4-3.1-6.8c0-2.3,0.7-3.8,2.1-4.7c1.4-0.7,2.8-1.2,4.3-1.2c1.2,0,2.1,0.3,2.8,0.9c0.7,0.5,1,1.4,1,2.4
	c0,0.9,0,1.4-0.2,1.7c-0.2,0.3-0.3,0.9-0.5,1.2c-0.2,0.3-0.3,0.9-0.5,1.4c-0.2,0.5-0.2,1.2-0.2,2.1c0,1,0.3,1.7,1.2,2.4
	c0.9,0.7,1.9,0.9,3.3,0.9c2.6,0,5.2-1.6,7.8-4.9c2.8-3.3,5.2-7.5,7.7-12.7c2.3-5.2,4.2-11.3,5.7-18.1s2.3-13.7,2.3-20.9
	c0-7-0.2-12.7-0.5-17.2c-0.3-4.3-0.9-7.8-1.4-10.3c-0.5-2.4-1.2-4.2-1.9-5s-1.6-1.2-2.3-1.2c-1.6,0-3,0.5-4.2,1.9
	c-1.2,1.2-2.1,2.6-3,4.3c-0.9,1.7-1.4,3.5-1.9,5.2c-0.5,1.7-0.9,3.3-1.2,4.5l-1.9-0.5C538.8,326.5,539.3,324.7,539.8,322.7z"/>
<g>
	<path class="st0" d="M257.5,326.3l0.3,0.2c1-1.7,2.4-3.5,4-5.4c1.6-1.9,3.3-3.7,5.2-5.2s4-2.8,6.1-3.8c2.3-1,4.5-1.6,7-1.6
		c2.8,0,5.2,0.5,7.3,1.6s3.8,2.4,5.4,4c1.4,1.7,2.6,3.7,3.3,5.7c0.7,2.1,1,4.3,1,6.8c0,3.7-0.7,7.1-2.1,10.8
		c-1.4,3.5-3.1,7-5.4,10.1c-2.3,3.1-4.9,6.3-7.7,8.9c-3,2.8-5.9,5-9,7.1c-3.1,1.9-6.3,3.5-9.4,4.7c-3.1,1-6.1,1.7-8.7,1.7
		c-1.7,0-3.5-0.3-5.4-0.9c-1.9-0.5-3.5-1.6-5-2.8c-1.6-1.2-2.8-3-3.8-4.9c-1-1.9-1.6-4.3-1.6-7.3c0-1.7,0.3-3.8,0.9-6.3
		c0.5-2.4,1.2-4.5,1.9-6.3l26.4-74.1l10.3-1.9L257.5,326.3z M255.1,370.2c2.8,0,5.4-0.9,8.2-2.4s5.4-3.8,7.8-6.4
		c2.4-2.8,4.9-5.7,7-9.2c2.1-3.5,4-7,5.6-10.6c1.6-3.7,2.8-7.3,3.7-10.8s1.4-6.8,1.4-9.7c0-2.8-0.9-4.9-2.4-6.4
		c-1.6-1.4-3.8-2.1-6.6-2.1c-2.6,0-5,0.9-7.7,2.4c-2.6,1.6-5.2,3.7-7.7,6.3c-2.4,2.6-4.7,5.6-7,8.9c-2.1,3.3-4,7-5.6,10.4
		c-1.6,3.7-2.8,7.1-3.8,10.8c-0.9,3.5-1.4,7-1.4,9.9C246.7,367.2,249.5,370.2,255.1,370.2z"/>
	<path class="st0" d="M266.5,274.5l3.5-9.4c2.1-5.4,4.2-8.5,6.3-11.7c2.1-3.1,4.3-4.9,7-7.3c2.6-2.3,5.9-4.7,9-5.6
		c1.9-0.7,4.2-0.9,7-0.7c1.7,0.2,3.1,0.5,4.2,1c1.2,0.5,2.1,1.2,2.8,2.1c0.7,0.9,1.2,1.6,1.6,2.6c0.3,0.9,0.3,1.7,0.3,2.4
		c0,1-0.5,2.3-1.2,3.3s-1.9,1.6-3.5,1.4c-1.4-0.2-2.4-0.3-3-1c-0.5-0.5-0.9-1.2-0.9-1.9c0-0.7,0.2-1.2,0.5-1.7
		c0.3-0.5,0.5-0.9,0.9-1.4c0.3-0.3,0.5-0.9,0.9-1.2c0.2-0.3,0.3-0.9,0.3-1.4c0-1-0.2-1.9-1-2.3c-0.7-0.3-1.6-0.7-2.6-0.7
		c-3-0.2-3.8,0.5-6.3,2.3c-2.3,1.7-3.8,3.8-5.6,6.3c-1.7,2.4-3.1,4.9-4.2,7.5c-1.2,2.6-2.1,4.9-2.6,6.6l-1.9,5.6"/>
</g>
<path class="st0" d="M213.3,358.1c-0.5,1.4-0.9,2.8-1.4,4.2s-0.7,2.8-0.7,4c0,1,0.3,2.1,0.9,2.8c0.7,0.7,1.6,1.2,2.8,1.2
	c1.4,0,2.8-0.5,4.2-1.6c1.4-1,2.6-2.1,3.8-3.5c1.2-1.4,2.1-2.6,3-4c0.9-1.4,1.4-2.4,1.7-3.3l1.6,0.7c-0.3,0.7-0.9,1.7-1.7,3.3
	c-0.7,1.6-1.7,3-3.1,4.5s-3,2.8-5,3.8c-1.9,1-4.3,1.6-7,1.6c-3,0-5.4-0.5-7.1-1.7c-1.7-1.2-2.6-3.3-2.6-6.1c0-1.6,0.3-3.3,0.9-5
	c0.5-1.9,1-3.5,1.6-5l30.1-84.4h-12l0.5-1.9h21.6L213.3,358.1z"/>
<g>
	<path d="M620.5,296.7c0,4-3.3,7.3-7.5,7.3s-7.5-3.3-7.5-7.3s3.3-7.3,7.5-7.3S620.5,292.6,620.5,296.7z M607.5,296.7
		c0,3.3,2.4,5.7,5.7,5.7c3.1,0,5.6-2.6,5.6-5.7c0-3.3-2.4-5.9-5.6-5.9C609.9,290.8,607.5,293.4,607.5,296.7z M612,300.4h-1.7v-7.3
		c0.7-0.2,1.6-0.2,2.8-0.2c1.4,0,1.9,0.2,2.4,0.5s0.7,0.9,0.7,1.6c0,0.9-0.7,1.4-1.6,1.7v0.2c0.7,0.2,1,0.9,1.2,1.7
		c0.2,1,0.3,1.6,0.5,1.7h-1.7c-0.2-0.3-0.3-0.9-0.5-1.7c-0.2-0.7-0.5-1-1.6-1h-0.9v2.8H612z M612,296.4h0.9c0.9,0,1.7-0.3,1.7-1
		c0-0.7-0.5-1-1.6-1c-0.5,0-0.7,0-0.9,0.2v1.9H612z"/>
</g>
</svg>
